<svg xmlns="http://www.w3.org/2000/svg" viewBox="0 0 24 24" fill="none" stroke="currentColor" stroke-width="2" stroke-linecap="round" stroke-linejoin="round"><path d="M3 18v-6a9 9 0 0 1 18 0v6"><animate attributeName="fill" values="#4285F4;#EA4335;#FBBC05;#34A853;#4285F4;#34A853;#FBBC05;#EA4335;#4285F4" dur="3s" repeatCount="indefinite"/></path><path d="M21 19a2 2 0 0 1-2 2h-1a2 2 0 0 1-2-2v-3a2 2 0 0 1 2-2h3zM3 19a2 2 0 0 0 2 2h1a2 2 0 0 0 2-2v-3a2 2 0 0 0-2-2H3z"><animate attributeName="fill" values="#4285F4;#EA4335;#FBBC05;#34A853;#4285F4;#34A853;#FBBC05;#EA4335;#4285F4" dur="3s" repeatCount="indefinite"/></path></svg>