<svg xmlns="http://www.w3.org/2000/svg" viewBox="0 0 24 24" fill="none" stroke="currentColor" stroke-width="2" stroke-linecap="round" stroke-linejoin="round"><path d="M4.5 16.5c-1.5 1.26-2 5-2 5s3.74-.5 5-2l.5-.5a5.4 5.4 0 0 0 5.4 0l.5.5c1.26 1.5 5 2 5 2s-.5-3.74-2-5l-.5-.5a5.4 5.4 0 0 0 0-5.4l-.5-.5C14.74 3.5 11 3 11 3s-3.74.5-5 2l-.5.5a5.4 5.4 0 0 0 0 5.4l-.5.5Z"><animate attributeName="fill" values="#4285F4;#EA4335;#FBBC05;#34A853;#4285F4;#34A853;#FBBC05;#EA4335;#4285F4" dur="3s" repeatCount="indefinite"/></path><path d="m12 15 3.5-3.5"><animate attributeName="fill" values="#4285F4;#EA4335;#FBBC05;#34A853;#4285F4;#34A853;#FBBC05;#EA4335;#4285F4" dur="3s" repeatCount="indefinite"/></path><path d="M2 22v-3l4-4 3 3-4 4H2Z"><animate attributeName="fill" values="#4285F4;#EA4335;#FBBC05;#34A853;#4285F4;#34A853;#FBBC05;#EA4335;#4285F4" dur="3s" repeatCount="indefinite"/></path><path d="M22 2h-3l-4 4 3 3 4-4V2Z"><animate attributeName="fill" values="#4285F4;#EA4335;#FBBC05;#34A853;#4285F4;#34A853;#FBBC05;#EA4335;#4285F4" dur="3s" repeatCount="indefinite"/></path></svg>